<svg id="Capa_1" data-name="Capa 1" xmlns="http://www.w3.org/2000/svg" viewBox="0 0 657.412 652.604"><defs><style>.cls-1{fill:none;stroke:#000;stroke-linecap:round;stroke-miterlimit:10;stroke-width:45px;}</style></defs><g id="circle"><path d="M892.709,158.486a14.942,14.942,0,0,0-10.169-.96,288.845,288.845,0,0,0-62.127,24.156h0l-.189.1,0,0-.182.1-.009,0-.183.1,0,0-.664.354h0l-.187.1,0,0-.66.355-.008,0-.174.093-.019.011-.176.095-.007,0-.468.254-.012.007-.173.093-.017.01-.171.093-.014.008-.467.255-.008,0-.179.1-.009,0-.175.1-.015.008-.464.256-.009.005-.176.1-.016.008-.17.095-.015.008-.181.1h0l-.463.258-.023.013-.159.089-.028.016-.15.084-.035.019-.163.092-.016.009-.278.155-.011.007-.17.095-.022.013-.16.091-.024.013-.46.26,0,0-.176.1-.026.016-.159.09-.021.012-.165.094-.019.01-.274.157-.016.009-.165.094-.026.015-.155.089-.03.017-.146.084-.037.021-.139.08-.042.024-.085.049-.04.024-.139.08-.042.024-.138.079-.041.024-.139.081-.04.023-.143.082-.036.021-.267.156-.031.018-.144.084-.047.027-.129.075-.048.028-.13.076-.048.028-.12.07-.057.033-.083.049-.058.034-.119.07-.05.029-.129.076-.049.029-.127.074-.05.03-.118.07-.06.035-.081.048-.055.032-.122.073-.059.035-.114.067-.056.033-.127.075-.045.027-.141.084-.033.02-.265.157-.041.024-.138.083-.041.025-.132.079-.047.028-.135.08-.042.025-.124.075-.054.032-.083.05-.043.026-.134.081-.041.024-.135.082-.045.027-.129.077-.049.03-.122.074-.052.031-.086.052-.026.016-.15.091-.041.025-.136.082-.041.025-.132.081-.048.029-.142.086-.029.018-.267.163-.024.014-.154.094-.032.02-.141.086-.039.024-.145.09-.03.018-.17.1-.007,0-.088.054-.03.018-.145.089-.038.024-.142.088-.034.02-.14.087-.038.024-.146.09-.03.019-.088.054,0,0-.176.108-.024.016-.153.094-.028.018-.153.1-.023.014-.164.1-.013.009-.268.167-.024.015-.154.1-.026.017-.152.095-.026.017-.156.1-.022.014-.445.281-.02.012-.155.1-.028.017-.151.1-.025.016-.171.108,0,0-.269.171-.016.011-.159.1-.025.016-.156.1-.02.013-.446.286-.012.008-.164.1-.021.013-.16.1-.015.01-.169.109-.009,0-.27.175h0l-.177.114-.009.006-.166.108-.018.012-.166.107-.01.006-.175.114,0,0-.271.176,0,0-.176.115-.007,0-.173.113-.007,0-.626.411-.012.008-.161.106-.021.013-.17.113h0l-.631.418h0c-1.284.853-2.568,1.72-3.84,2.595A15,15,0,0,0,809,223.6a257.481,257.481,0,0,1,81.086-37.039,15,15,0,0,0,2.623-28.076ZM739.715,263.779a15,15,0,0,0-18.619,4.864l-.063.089-.031.043-.053.075-.049.068-.07.1-.049.068-.061.087-.058.081-.043.061-.077.109-.041.058-.079.113-.036.051-.065.092-.04.057-.075.107-.034.048-.085.121-.031.044-.088.126-.024.034-.081.116-.021.029-.091.13-.027.039-.091.131-.022.03-.1.138-.013.02-.1.137-.009.013-.1.142-.018.027-.1.143-.01.015-.217.313h0l-.108.157-.006.008-.442.641v0a288.155,288.155,0,0,0-18.6,31.135v0l-.091.176,0,0-.273.533v0l-.09.175,0,.007c-.061.118-.121.235-.181.354h0l-.09.176,0,.006-.088.174,0,.006-.179.353,0,0-.087.173,0,.01-.087.172,0,.006-.175.349-.006.011-.085.169-.007.014-.084.169-.006.013c-.058.114-.115.228-.172.343l-.007.013-.083.167-.009.018-.083.167,0,.011-.169.341-.011.022-.08.161-.012.024-.08.162-.008.017-.083.168h0l-.082.167-.012.024-.079.16-.012.025-.08.162-.007.016-.08.163,0,.01-.081.165-.011.024-.079.162-.011.022-.08.165-.007.013-.078.161-.008.015-.078.162-.013.027-.077.159-.014.027-.078.162-.007.014-.076.159-.01.019-.076.159-.015.031-.076.158-.013.026-.078.163-.006.013-.076.157-.011.023-.075.158-.016.032-.075.157-.012.027-.079.164,0,.007-.077.161-.012.025-.075.158-.015.032-.075.158-.011.024-.08.168h0l-.075.159-.014.028-.071.153-.015.031-.074.156,0,.011-.071.15-.013.028-.072.154-.013.028-.074.158-.007.014-.07.15-.011.025-.072.152-.016.034-.071.154-.008.017-.07.149-.01.023-.072.154-.015.031-.071.154-.011.025-.066.141-.011.025-.07.15-.017.038-.068.147-.016.034-.063.138-.011.023-.07.152-.015.034-.07.15-.014.032-.07.153,0,0-.071.157-.015.033-.069.151-.014.031-.072.156,0,.01-.068.15-.015.033-.068.149-.017.037-.068.151-.009.019-.064.141-.015.033-.067.148-.017.039-.067.149-.012.025-.063.142-.012.026-.068.151-.017.037-.067.151-.013.027-.059.133-.016.035-.066.148-.016.036-.067.15-.014.032-.062.138-.011.025-.067.15-.016.038-.067.15-.013.029-.066.148-.006.014-.068.155-.015.034-.066.15-.015.034-.067.15,0,.009-.068.156-.014.032-.067.152-.014.033-.068.153-.008.018-.063.145-.013.031-.066.149-.017.039-.065.151-.009.02-.061.139-.016.037-.063.145-.018.043-.064.146-.013.03-.058.136-.014.03-.063.148-.018.04-.064.149-.013.03-.058.134-.014.033-.063.147-.018.041-.062.147-.016.036-.059.139-.009.019-.065.153-.016.037-.064.15-.014.033-.059.139-.011.027-.063.147-.016.038-.062.147-.017.04-.058.137-.015.035-.055.13-.02.048-.06.141-.019.045-.061.145-.011.026-.057.137-.016.036-.06.145-.02.046-.06.144-.013.031-.054.13-.016.038-.061.146-.017.041-.061.147-.015.035-.053.129-.015.036-.061.148-.017.039-.062.15-.012.029-.058.141-.01.024-.063.152-.015.038-.061.148-.015.036-.056.135-.011.027-.06.147-.018.044-.06.147-.014.035-.058.141-.01.024-.06.147-.015.038-.06.147-.017.041-.059.146-.009.021-.058.144-.015.036-.059.147-.017.043-.06.147-.011.029-.053.131-.016.039-.058.145-.018.044-.059.147-.013.031-.051.13-.016.039-.058.146-.017.042-.059.147-.014.034-.053.134-.012.029-.058.148-.018.045-.058.145-.014.036-.052.131-.013.034-.058.147-.017.041-.058.148-.014.036-.055.138-.009.023-.059.15-.016.041-.057.146-.016.041-.053.135-.014.035-.055.14-.015.039-.057.147-.015.039-.06.154,0,.014-.056.143-.015.039-.058.148-.014.037-.059.153L687,332.1l-.052.135-.014.037-.056.147-.017.041-.058.152-.008.02-.057.149-.009.023-.059.155-.013.034-.059.154-.01.027-.056.145-.008.023-.059.154-.014.037-.058.153-.01.027-.055.144-.009.023-.058.153-.013.036-.058.152-.012.032-.058.155,0,.006-.06.16-.012.032-.057.153-.013.034-.059.157,0,0-.059.157-.011.031-.057.153-.013.035-.059.157,0,.011-.057.154-.01.028-.059.157-.01.028-.06.161,0,.011-.06.164,0,.012-.061.163-.01.026-.059.163,0,.012-.058.159-.007.018-.059.162-.009.024-.06.165,0,.011c-.042.114-.083.228-.125.341l-.007.02-.06.167,0,.012-.062.172h0l-.063.172,0,.015-.06.166-.007.019-.123.342,0,.011-.062.173,0,.006-.127.354v0l-.062.174,0,.011-.189.532,0,0-.189.536,0,0q-.094.269-.188.537v0q-3.058,8.748-5.519,17.577a15,15,0,0,0,28.9,8.062,260.165,260.165,0,0,1,38.395-80.491,15.009,15.009,0,0,0-5.822-22.26ZM690,442.753a15,15,0,0,0-21.36,14.74,287.38,287.38,0,0,0,3.723,28.734h0q.087.48.175.96v0l.035.189v0q.071.381.142.762v.006l.036.188v0l.036.187v.007l.145.76v.007l.037.188v0c.037.19.074.381.111.57v.006l.036.186c0,.009,0,0,0,.006l.036.187v0c.051.255.1.508.152.763h0l.037.188,0,.007.037.184,0,.01c.05.251.1.5.152.755l0,.009.038.185c0,.009,0,0,0,.006.038.187.077.377.116.564l0,.01.037.18,0,.014.037.178,0,.015.038.181v.006l.079.375v0l.037.178,0,.02.036.172,0,.022.036.172,0,.021.038.177v0c.026.125.053.249.079.374l0,.011.038.179,0,.014.039.18,0,.012.04.181v.007c.026.121.053.244.08.365l0,.018.039.175,0,.018.038.174,0,.02.039.177v.007c.041.187.082.372.124.558l0,.016.04.177,0,.014.039.177,0,.017c.041.185.084.372.125.557l0,.007.041.18,0,.015.041.18c0,.009,0,0,0,.007.043.186.085.372.128.558l0,.013.04.176,0,.018.04.175,0,.017.042.178v.008l.087.373v0l.042.179,0,.017.041.176,0,.015.041.175,0,.02c.043.184.087.368.13.552l0,.008.042.177,0,.02.042.175,0,.012.044.183h0l.09.374,0,.008.044.181,0,.011.044.18,0,.012.045.182h0c.03.125.061.251.091.376l0,0,.043.179,0,.016.043.176,0,.014.043.177,0,.014c.046.185.091.371.138.556v.006l.045.179,0,.016.044.18v0l.141.561,0,.007.047.184v0l.046.184,0,.009c.047.185.1.374.143.559v0l.046.18,0,.014.045.175,0,.017.045.175,0,.014c.047.185.094.366.142.551l0,.01.046.177,0,.016.046.176,0,.013c.048.185.1.367.145.552l0,.01.048.179,0,.011.048.18,0,.008.2.745,0,.008.049.181,0,.008.049.181,0,.009c.067.249.134.5.2.746v0a288.8,288.8,0,0,0,15.577,43.253,15,15,0,0,0,27.327-12.38,257.453,257.453,0,0,1-22.237-86.325A14.994,14.994,0,0,0,690,442.753Zm76.73,169.2A15,15,0,0,0,749.579,636q5.867,6,12.115,11.68l0,0,.139.126,0,0,.419.38.008.007.137.124c.007.006,0,0,0,0l.417.376.015.013.133.12.008.007.279.25,0,0,.135.121.014.012.133.119.009.008.275.245.011.009.129.116.02.017.129.115.014.012.268.238.017.015.125.111.026.022.124.11.02.018.123.108.01.009.13.115.02.017.123.109.029.025.123.108.019.017.122.107.013.011.128.113.022.019.125.109.025.022.126.111.015.012.123.108.016.014.126.109.026.024.12.1.032.028.122.106.017.015.114.1.028.025.119.1.034.03.116.1.034.029.118.1.017.015.112.1.036.031.112.1.042.036.11.1.042.036.1.084.04.034.1.088.04.035.112.1.041.035.112.1.039.033.1.082.039.034.107.091.04.034.113.1.041.035.109.094.044.037.09.076.042.036.106.09.046.039.11.093.041.035.106.09.045.038.092.078.039.033.109.092.048.041.108.09.044.038.094.078.06.051.083.07.048.04.107.09.048.04.108.091.045.038.09.075.061.052.084.069.049.042.1.086.055.046.1.086.05.042.081.067.065.055.089.074.047.039.106.088.052.043.106.088.048.039.079.066.071.059.081.067.054.045.1.084.057.047.082.068.075.061.069.058.081.066.075.062.059.048.1.083.057.047.077.064.081.066.064.052.082.068.076.062.062.05.1.079.063.051.068.056.091.074.06.048.087.072.074.06.063.051.1.079.061.05.068.055.088.071.062.051.081.065.08.065.064.052.077.062.085.068.058.047.1.081.056.046.1.078.063.051.07.057.061.048.1.08.056.045.1.077.063.051.066.053.1.075.067.054.06.048.1.082.055.043.107.086.051.04.075.06.088.07.074.059.044.035.12.1.043.033.115.092.047.037.076.06.057.046.1.081.052.041.116.092.042.033.131.1.031.025.083.064.006.006.156.122.037.029.126.1.04.032.144.113.018.014.082.064.028.022.136.106.038.03.127.1.04.031.246.192.024.019.14.108.035.028.134.1.033.026.249.192.026.021.137.106.036.028.139.107.027.021.253.2.02.015.148.114.026.02.154.118.014.011.254.195.027.02.144.111.025.019.156.119.014.01.257.2.02.015.15.115.022.016.258.2.01.008.161.122.021.015.152.115.02.015.26.2,0,0,.17.128.012.009.161.121.016.011.26.2.013.01.16.119.019.014.168.126,0,0,.267.2,0,0,.174.13,0,0,.444.33.007,0,.173.128,0,0c.36.266.717.529,1.078.793l0,0,.178.13h0A288.483,288.483,0,0,0,830.5,693.959l.041.02A15,15,0,0,0,843.459,666.9a256.083,256.083,0,0,1-72.429-51.871,14.96,14.96,0,0,0-4.3-3.074Zm261.433,73.411a14.948,14.948,0,0,0-10.109-.975,255.868,255.868,0,0,1-88.83,6.691,15,15,0,1,0-2.987,29.851,286.617,286.617,0,0,0,99.215-7.468,15,15,0,0,0,2.711-28.1Zm153.617-104.373a15.007,15.007,0,0,0-18.574,4.8,254.586,254.586,0,0,1-63.843,62.05,15,15,0,1,0,16.839,24.828l.016-.01.141-.1.016-.012c.1-.068.2-.136.3-.205l.009-.006.144-.1.023-.016.141-.1.018-.012.146-.1.008-.006.3-.206.018-.012.142-.1.019-.013.142-.1.02-.013.3-.206.01-.007.148-.1.013-.009.147-.1.014-.009.15-.1h0l.31-.215.009-.007.146-.1.017-.012.145-.1.012-.008.3-.212.007-.006.145-.1.019-.013.142-.1.018-.012.144-.1.012-.009.3-.208.016-.012.141-.1.02-.014.14-.1.02-.014.144-.1,0,0,.149-.105.008-.006.145-.1.017-.012.142-.1.019-.014.144-.1.007,0,.3-.216.01-.007.145-.1.016-.011.145-.1.01-.007.3-.218.006,0,.143-.1.021-.016.14-.1.017-.012.144-.1.01-.007.3-.213.017-.012.14-.1.019-.013.14-.1.019-.013.143-.1,0,0,.143-.105.014-.01.143-.1.015-.01.144-.105.013-.01.147-.107,0,0,.308-.225h0l.15-.11.011-.008.146-.107.011-.008.148-.108,0,0,.151-.111,0,0,.147-.108.013-.01.144-.106.014-.01.145-.107.008-.006.3-.22.01-.008.144-.107.015-.011.14-.1.018-.014.3-.221c.008,0,0,0,0,0l.148-.11.01-.008.144-.107.014-.011.147-.109v0l.3-.226.009-.007.141-.105.02-.015.138-.1.016-.012.145-.109h0l.3-.225.016-.013.142-.107.012-.009.144-.109.009-.007.294-.223.012-.009.143-.109.012-.009.142-.108.015-.011.447-.342.008-.006.146-.112.009-.007.149-.114h0l.456-.351.006,0,.146-.113.009-.007.148-.114h0l.3-.231.013-.01.142-.11.012-.009.142-.111.011-.009.3-.23,0,0,.145-.114.012-.008.141-.111.013-.01.444-.347.009-.008.143-.112.012-.01.144-.113,0,0,.447-.353.011-.008.144-.114.006,0,.445-.353.011-.008.142-.113.01-.009.145-.115,0,0,.449-.359.006,0,.146-.117.006,0,.6-.481,0,0,.6-.483.005,0,.147-.119c.007-.006,0,0,0,0l.447-.363,0,0c.3-.244.6-.487.9-.733l0,0c.2-.164.4-.326.595-.491h0c.2-.164.4-.328.6-.493h0a284.889,284.889,0,0,0,49.124-52.637,15.013,15.013,0,0,0-5.768-22.335Zm50.813-178.668a15,15,0,0,0-21.367,14.65,254.572,254.572,0,0,1-9.139,88.557,15.005,15.005,0,0,0,7.988,17.672,15.158,15.158,0,0,0,2.316.871,15,15,0,0,0,18.543-10.305,285.4,285.4,0,0,0,7.12-31.642h0q.065-.384.127-.77v-.009l.031-.188v0q.048-.288.093-.576c0-.009,0,0,0-.007l.03-.186,0-.01.09-.57V479.8l.029-.184,0-.013.029-.184v-.008l.06-.382h0l.029-.188v-.01l.029-.184,0-.012q.043-.285.086-.57v-.008l.028-.182,0-.017.027-.183v-.008c.019-.125.038-.253.057-.378v-.006l.027-.181,0-.021.026-.175,0-.021.026-.177,0-.016.026-.179c0-.009,0,0,0-.005l.026-.181,0-.019.025-.175,0-.024.025-.173,0-.022c.018-.123.035-.243.052-.366l0-.012.026-.182,0-.015.025-.178,0-.023.025-.178c0-.01,0,0,0-.005l.025-.185c0-.009,0,0,0-.008l.025-.181,0-.018.024-.173,0-.029.024-.171,0-.022.023-.172,0-.012.023-.172,0-.026.022-.167.005-.036.022-.163,0-.032.023-.17,0-.019.021-.164,0-.022.023-.167,0-.035.022-.163,0-.036.022-.165,0-.028.021-.163,0-.018.021-.164.006-.039.02-.161.005-.037.021-.16,0-.04.021-.163,0-.025.018-.147,0-.04.02-.157.006-.043.019-.154.006-.05.019-.152.006-.043.016-.136.007-.051.017-.143.006-.046.019-.154.006-.047.018-.153.006-.046.018-.146,0-.045.017-.139.005-.041.018-.155.006-.047.018-.155.006-.044.018-.156,0-.041.017-.14,0-.038.018-.154.005-.045.019-.156,0-.044.018-.155.005-.045.017-.148,0-.039.016-.141.006-.045.017-.152,0-.05.017-.147.007-.059.015-.138.006-.056.015-.128,0-.049.017-.148,0-.047.016-.151.006-.053.017-.149.005-.048.015-.139,0-.047.015-.138,0-.05.016-.145.006-.057.016-.147.005-.051.016-.149.005-.047.014-.131,0-.044.016-.149.006-.055.015-.148.006-.052.015-.146,0-.057.013-.124.007-.064.012-.122.006-.062.015-.141.006-.059.014-.143.006-.058.013-.134.006-.061.012-.119.006-.063.014-.137,0-.057.015-.145,0-.058.014-.144,0-.054.012-.118.007-.073.012-.125,0-.054.014-.146.005-.056.014-.146.005-.055.012-.127.006-.071.012-.121,0-.051.014-.147,0-.055.014-.148,0-.052.014-.147,0-.056.01-.118.006-.066.012-.127.005-.06.013-.142.005-.059.012-.142.006-.061.011-.123,0-.068.011-.121.005-.056.012-.142.005-.061.012-.142,0-.06.012-.142,0-.055.01-.119.005-.062.011-.131,0-.061.012-.139,0-.063.011-.14.005-.062.01-.114.006-.081.009-.114.005-.061.011-.136.005-.067.012-.141,0-.056.011-.139.005-.06.009-.118,0-.06.011-.133.005-.063.01-.141,0-.058.01-.142,0-.062.009-.113.006-.083.008-.11.005-.064.01-.138.005-.064.01-.141,0-.059.01-.131,0-.065.009-.118,0-.058.01-.139,0-.058.01-.143,0-.058.01-.145,0-.055.008-.119.005-.073.009-.125,0-.053.01-.148,0-.052.01-.151,0-.049.009-.14,0-.057.008-.128,0-.044.01-.151,0-.053.01-.149,0-.05.01-.15,0-.049.008-.135,0-.046.009-.144,0-.048.009-.151,0-.051.009-.15,0-.049.009-.145,0-.047.008-.132,0-.047.009-.148,0-.055.009-.145,0-.056.008-.15,0-.042.008-.14,0-.039.009-.155,0-.041.008-.154,0-.049.009-.156,0-.037.008-.154,0-.039.008-.144,0-.038.008-.153,0-.052.008-.152,0-.043.008-.157,0-.041.007-.142v-.032l.008-.157,0-.047.008-.156,0-.04.008-.161v-.034l.008-.163v-.023l.007-.152,0-.041.008-.158,0-.04.007-.16v-.037l.008-.166v-.023l.007-.16v-.025l.007-.169,0-.03.007-.166V447.6l.007-.169V447.4l.008-.171v-.015l.007-.169v-.026l.007-.165v-.038l.007-.163v-.031l.006-.17v-.02l.007-.166v-.018l.007-.169v-.035l.006-.163v-.035l.006-.166v-.026l.006-.171v-.007l.006-.174v-.027l.006-.168v-.032l.006-.166v-.03l0-.171V444.7l.005-.168v-.02l0-.172v-.027l.005-.169v-.029l.005-.175v-.009l0-.184v0l.005-.181v-.018l0-.173v-.029l.005-.17v-.023l0-.178v0l0-.179v-.018l0-.171v-.03l0-.172v-.019l0-.182v0c0-.125.006-.25.008-.375V441.8l0-.178V441.6l0-.182v-.008c0-.125.005-.249.007-.374v-.012l0-.183v-.012l0-.184v-.01c0-.189.007-.38.01-.57v-.008l0-.182v-.017l0-.182v-.007l.005-.381v0l0-.186v-.013l0-.187h0l.006-.578v-.2q.009-.869.011-1.735v0q.035-10.826-.746-21.576a15,15,0,0,0-8.555-12.483Zm-75.675-169.654a15,15,0,0,0-17.21,23.981,256.066,256.066,0,0,1,49.8,73.867,15,15,0,1,0,27.4-12.215,287.61,287.61,0,0,0-33.157-56.214l-.005-.006q-.882-1.168-1.778-2.329l0,0-.116-.15-.007-.009-.473-.611,0-.005-.479-.615,0,0-.117-.15-.005-.006-.116-.149,0-.006-.48-.61c-.005-.008,0,0,0,0l-.117-.148-.006-.008-.116-.146-.007-.009-.357-.451-.006-.008-.115-.144-.01-.012-.115-.146,0,0-.36-.451-.008-.01-.116-.145-.007-.009-.117-.146-.005-.006-.36-.448-.009-.011-.113-.141-.013-.016-.112-.139-.011-.014c-.12-.147-.239-.3-.358-.442l-.009-.011-.113-.139-.014-.018-.113-.138-.01-.013-.24-.3,0,0-.119-.146-.007-.009-.114-.14-.015-.018-.113-.138-.009-.011-.118-.144c-.006-.007,0,0,0,0-.079-.1-.158-.193-.238-.289l-.015-.019-.111-.134-.015-.019-.11-.134-.018-.022-.111-.134-.011-.014-.109-.132-.011-.013-.113-.136-.015-.018-.11-.134-.018-.021-.11-.132-.018-.022-.11-.133-.014-.016-.11-.133-.008-.009-.112-.135-.018-.022-.108-.128-.022-.027-.105-.126-.025-.029-.106-.128-.016-.019-.11-.131-.007-.008-.114-.137-.016-.019-.107-.127-.027-.031-.1-.124-.024-.028-.106-.126-.021-.025-.1-.123-.011-.013-.106-.126-.028-.032-.1-.122-.027-.031-.1-.122-.026-.031-.107-.126-.016-.019-.108-.127-.012-.015-.109-.128-.022-.026-.1-.122-.03-.035-.1-.119-.029-.033-.1-.121-.026-.031-.1-.113-.023-.027-.1-.116-.028-.032-.1-.118-.031-.036-.1-.117-.032-.037-.1-.117-.028-.033-.093-.107-.034-.04-.089-.1-.035-.039-.094-.109-.04-.046-.1-.111-.036-.041-.1-.111-.035-.041-.09-.1-.033-.039-.088-.1-.036-.042-.1-.113-.033-.038-.1-.112-.038-.044-.095-.108-.04-.046-.074-.085-.06-.068-.069-.08-.049-.055-.085-.1-.044-.051-.089-.1-.048-.054-.088-.1-.046-.052-.069-.079-.061-.069-.07-.08-.051-.058-.078-.089-.054-.06-.08-.091-.057-.065-.065-.073-.071-.08-.054-.061-.079-.089-.056-.063-.079-.089-.054-.061-.059-.067-.079-.089-.057-.064-.066-.074-.071-.079-.056-.064-.078-.087-.051-.057-.087-.1-.051-.057-.057-.064-.08-.089-.06-.067-.056-.063-.081-.09-.045-.05-.1-.109-.037-.042-.1-.113-.036-.04-.119-.131-.02-.023-.068-.075-.026-.029-.116-.128-.026-.029-.116-.128-.024-.027-.119-.131-.023-.025-.213-.234-.011-.013-.131-.144-.019-.021-.124-.136-.02-.023-.13-.141-.011-.012c-.123-.135-.24-.264-.364-.4l-.007-.008-.138-.151-.008-.009q-2.442-2.658-4.95-5.255a14.958,14.958,0,0,0-4.352-3.123Zm-79.306-56.8-.166-.079-.025-.012-.158-.074-.031-.015-.159-.075-.022-.01-.16-.076-.011,0-.164-.078-.026-.012-.158-.074-.031-.015-.16-.074-.018-.009-.155-.072-.02-.01-.162-.075-.027-.012-.159-.074-.028-.014-.163-.075-.012-.006-.16-.074-.021-.01-.159-.073-.031-.015-.156-.072-.032-.015-.161-.074-.01,0-.157-.072-.027-.012-.158-.073-.03-.013-.159-.073-.026-.012-.333-.152-.026-.012-.16-.073-.028-.013-.16-.073-.026-.012-.162-.074h0l-.163-.074-.031-.014-.157-.071-.03-.014-.161-.073-.02-.009-.162-.073-.01,0-.164-.074-.029-.013-.157-.071-.031-.014-.161-.072-.017-.008-.154-.069-.024-.01-.156-.07-.035-.016-.157-.07-.028-.012-.163-.073-.013-.006-.161-.071-.019-.009-.163-.072-.027-.012-.164-.073-.018-.008-.342-.151-.02-.009-.162-.071-.03-.013-.161-.071-.021-.009-.168-.074h0l-.169-.074-.023-.01-.162-.071-.028-.012-.164-.071-.014-.007-.171-.074,0,0-.168-.073-.025-.011-.159-.069-.031-.013-.163-.071-.014-.006-.163-.07-.015-.007-.165-.071-.026-.011-.161-.069-.027-.012-.167-.072h0l-.171-.073-.017-.007-.166-.071-.023-.01-.165-.071-.022-.009-.339-.145-.023-.01-.164-.069-.025-.011-.164-.069-.02-.009-.171-.072h0l-.169-.071-.024-.011-.161-.068-.03-.012-.161-.068-.021-.009-.165-.069-.007,0-.167-.07-.026-.011-.163-.068-.024-.011-.168-.069-.01,0-.176-.073h0l-.174-.072-.018-.007-.17-.071-.016-.007-.174-.072h0l-.178-.073-.006,0-.174-.072-.016-.007-.172-.07-.013-.006-.353-.145-.011,0-.171-.071-.019-.007-.17-.07-.015-.006-.35-.142-.015-.007-.17-.069-.019-.007-.173-.071-.005,0-.357-.144-.014-.006-.171-.068-.019-.008-.173-.07h0l-.18-.072-.005,0-.174-.07-.017-.006-.17-.069-.017-.006-.359-.143h0l-.178-.071-.012,0-.174-.069-.014,0-.352-.139-.014-.006-.172-.068-.016-.006-.173-.068-.01,0-.356-.14-.012,0-.177-.069-.008,0-.18-.07h0l-.361-.141-.012-.005-.175-.068-.011,0c-.182-.07-.363-.141-.545-.21l-.008,0-.181-.069h0l-.552-.211-.007,0-.182-.069h0l-.551-.209-.01,0-.18-.068h0l-.553-.209-.005,0-.738-.276,0,0-.554-.206h0l-.185-.068h0l-.741-.273h0a285.614,285.614,0,0,0-62.892-15.269h-.008l-.185-.023h0l-.378-.047h0l-.185-.023h-.009l-.184-.023h0l-.372-.045h-.009l-.181-.022h-.012l-.373-.045h0l-.18-.021-.018,0-.17-.02-.027,0-.173-.02h-.006l-.168-.019-.025,0-.163-.019-.034,0-.16-.018-.037,0-.162-.018-.022,0-.149-.017-.037,0-.151-.017-.051-.006-.148-.017-.047,0-.139-.015-.046-.006-.133-.014-.049-.006-.144-.015-.057-.007-.142-.015-.055-.006-.119-.013-.07-.008-.115-.012-.065-.007-.137-.015-.061-.006-.138-.015-.06-.006-.1-.011-.085-.009-.106-.011-.073-.008-.13-.013-.068-.008-.107-.011-.1-.01-.081-.008-.112-.012L984,149.69l-.083-.008-.119-.012-.082-.009-.08-.008-.12-.012-.075-.007-.119-.012-.078-.008-.092-.009-.068-.007-.136-.013-.057-.006-.146-.014-.058-.006-.17-.016-.03,0-.105-.01h-.006l-.2-.019-.03,0-.183-.017-.026,0-.284-.027a15,15,0,0,0-2.779,29.871,256.253,256.253,0,0,1,85.9,23.658h0q1.418.671,2.823,1.357l.164.078a15,15,0,0,0,13.035-27.019c-.286-.139-.58-.283-.867-.421l-.038-.019-.043-.02-.074-.036h0q-.781-.378-1.568-.752l-.013-.007-.084-.04-.022-.01-.074-.035-.037-.018-.064-.03-.038-.018-.061-.029-.055-.027-.047-.022-.1-.047Z" transform="translate(-668.588 -149.396)"/></g><g id="GIF"><path d="M873.656,399.03h55.316v54.023H869.649c-29.984,0-52.084-19-52.084-44.071,0-25.332,22.1-42.392,52.084-42.392h61.908l-17.319,22.489H869.649c-14.475,0-25.461,8.788-25.461,21.066,0,12.537,10.6,20.679,25.461,20.679h32.7V418.287H857.63Z" transform="translate(-668.588 -149.396)"/><path d="M971.493,453.053H944.74V366.59h26.753Z" transform="translate(-668.588 -149.396)"/><path d="M1085.1,366.59l-17.319,22.489h-52.73v11.243h65.138L1063.9,421.389h-48.853v31.664H988.164V366.59Z" transform="translate(-668.588 -149.396)"/></g><g id="Around"><path d="M838.8,500.68l3.152-4.346h22.256L849.5,474.173l-17.91,26.507h-6.113l20.728-30.423A4.1,4.1,0,0,1,849.6,468.3a4.017,4.017,0,0,1,3.391,1.958l20.441,30.423Z" transform="translate(-668.588 -149.396)"/><path d="M911.641,500.68l-11.414-10.555h-18.34V500.68h-5.158V485.97h22.876c5.97,0,11.367-1.72,11.367-6.305,0-5.062-4.728-6.543-11.367-6.543H876.633l3.391-4.393h21.492c7.45,0,14.757,2.865,14.757,10.65,0,5.731-4.2,9.218-10.7,9.791l13.087,11.51Z" transform="translate(-668.588 -149.396)"/><path d="M941.4,501.205c-14.28,0-21.444-5.11-21.444-16.525S927.119,468.2,941.4,468.2s21.445,5.063,21.445,16.477S955.68,501.205,941.4,501.205Zm0-28.656c-11.319,0-16.286,3.152-16.286,12.131s4.967,12.179,16.286,12.179,16.287-3.2,16.287-12.179S952.719,472.549,941.4,472.549Z" transform="translate(-668.588 -149.396)"/><path d="M1000.96,468.729h5.206v18c0,9.648-6.209,14.472-18.531,14.472-14.281,0-20.442-4.824-20.442-14.472v-18h5.159v18c0,7.164,4.251,10.173,15.283,10.173s13.325-3.009,13.325-10.173Z" transform="translate(-668.588 -149.396)"/><path d="M1016.007,475.463V500.68h-4.68V471.546c0-2.292,1.337-3.247,2.865-3.247a3.025,3.025,0,0,1,2.246,1l25.646,24.548V468.729h4.728v28.99c0,2.292-1.384,3.247-2.913,3.247a2.859,2.859,0,0,1-2.2-.955Z" transform="translate(-668.588 -149.396)"/><path d="M1052.355,500.68V480.764h5.159v15.57h14.71c7.307,0,12.752-4.92,12.752-11.7,0-6.735-5.493-11.511-12.752-11.511h-19.869l3.344-4.393h16.525c10.364,0,17.862,6.447,17.862,15.665,0,9.265-7.594,16.286-17.862,16.286Z" transform="translate(-668.588 -149.396)"/></g><g id="handle"><line class="cls-1" x1="488.412" y1="483.604" x2="634.912" y2="630.104"/></g></svg>